<?xml version="1.0" encoding="UTF-8" standalone="no"?>
<svg
   xmlns:dc="http://purl.org/dc/elements/1.1/"
   xmlns:cc="http://creativecommons.org/ns#"
   xmlns:rdf="http://www.w3.org/1999/02/22-rdf-syntax-ns#"
   xmlns:svg="http://www.w3.org/2000/svg"
   xmlns="http://www.w3.org/2000/svg"
   viewBox="0 0 453.33334 548"
   height="548"
   width="453.33334"
   xml:space="preserve"
   id="svg2"
   version="1.1"><metadata
     id="metadata8"><rdf:RDF><cc:Work
         rdf:about=""><dc:format>image/svg+xml</dc:format><dc:type
           rdf:resource="http://purl.org/dc/dcmitype/StillImage" /><dc:title></dc:title></cc:Work></rdf:RDF></metadata><defs
     id="defs6" /><g
     transform="matrix(1.3333333,0,0,-1.3333333,0,548)"
     id="g10"><g
       transform="scale(0.1)"
       id="g12"><path
         id="path14"
         style="fill:#b3404a;fill-opacity:1;fill-rule:nonzero;stroke:none"
         d="m 1699.1,9.98047 c -54.02,0 -108.05,11.60933 -158.36,34.73043 C 1077.46,257.879 0,831.27 0,1550.96 v 1834.53 c 0,62.5 30.3086,121.64 81.0898,158.21 50.4302,36.25 115.5902,46.17 174.3402,26.48 91.84,-30.78 187.968,-46.37 285.781,-46.37 316.641,0 604.019,161.88 768.749,433.05 55.9,91.99 157.03,149.14 263.95,149.14 h 250.43 c 106.91,0 208,-57.15 263.9,-149.14 164.77,-271.17 452.11,-433.09 768.79,-433.09 97.77,0 193.95,15.63 285.78,46.41 58.71,19.69 123.91,9.77 174.3,-26.52 50.82,-36.53 81.13,-95.67 81.13,-158.17 v -480.04 c 0,-64.96 -52.65,-117.57 -117.62,-117.57 -64.92,0 -117.57,52.61 -117.57,117.57 v 425 c -99.26,-27.77 -201.96,-41.83 -306.02,-41.83 -399.49,0 -762.03,204.14 -969.76,546.13 -13.72,22.58 -37.27,36.05 -62.93,36.05 h -250.43 c -25.71,0 -49.22,-13.47 -62.93,-36.09 -207.74,-341.95 -570.281,-546.09 -969.769,-546.09 -104.102,0 -206.762,14.02 -306.051,41.83 V 1550.96 c 0,-476.83 725.192,-980.351 1403.86,-1292.62 38.17,-17.539 82,-17.539 120.16,0 678.67,312.269 1403.87,815.79 1403.87,1292.62 v 748.71 c 0,64.96 52.61,117.62 117.57,117.62 64.97,0 117.58,-52.66 117.58,-117.62 V 1550.96 C 3398.2,831.27 2320.74,257.879 1857.46,44.7109 1807.15,21.5898 1753.12,9.98047 1699.1,9.98047 Z" /><path
         id="path16"
         style="fill:#f4b2b0;fill-opacity:1;fill-rule:nonzero;stroke:none"
         d="m 2324.8,2683.7 c -106.32,106.32 -278.71,106.32 -385.03,0 L 1699.1,2443.03 1458.48,2683.7 c -106.33,106.32 -278.71,106.32 -385.04,0 -106.331,-106.33 -106.331,-278.72 0,-385.04 l 240.66,-240.67 -240.66,-240.62 c -106.331,-106.33 -106.331,-278.71 0,-385.04 106.33,-106.33 278.71,-106.33 385.04,0 l 240.62,240.66 240.67,-240.66 c 106.32,-106.33 278.71,-106.33 385.03,0 106.29,106.33 106.29,278.71 0,385.04 l -240.66,240.62 240.66,240.67 c 106.29,106.32 106.29,278.71 0,385.04 z" /><path
         id="path18"
         style="fill:#b3404a;fill-opacity:1;fill-rule:nonzero;stroke:none"
         d="m 2132.27,1234.98 c -104.15,0 -202.04,40.59 -275.67,114.18 l -157.5,157.5 -157.5,-157.5 c -73.63,-73.63 -171.52,-114.18 -275.66,-114.18 -104.14,0 -202.03,40.55 -275.67,114.18 -151.989,152 -151.989,399.34 0,551.33 l 157.5,157.5 -157.5,157.5 c -151.989,151.99 -151.989,399.3 0,551.33 73.68,73.63 171.57,114.18 275.67,114.18 104.14,0 202.03,-40.55 275.66,-114.18 l 157.5,-157.5 157.5,157.5 c 73.63,73.63 171.52,114.18 275.67,114.18 104.14,0 202.03,-40.55 275.66,-114.18 151.99,-151.99 151.99,-399.3 0,-551.33 l -157.5,-157.5 157.5,-157.5 c 151.99,-151.99 151.99,-399.29 0,-551.29 -73.63,-73.63 -171.52,-114.22 -275.66,-114.22 z m -433.17,555.59 c 31.17,0 61.1,-12.38 83.17,-34.45 l 240.62,-240.63 c 29.22,-29.22 68.05,-45.31 109.38,-45.31 41.28,0 80.15,16.09 109.37,45.31 60.27,60.28 60.27,158.44 0,218.75 l -240.66,240.63 c -22.03,22.03 -34.42,51.95 -34.42,83.12 0,31.21 12.39,61.1 34.42,83.17 l 240.66,240.62 c 60.31,60.31 60.31,158.44 0,218.75 -29.22,29.22 -68.05,45.31 -109.37,45.31 -41.29,0 -80.16,-16.09 -109.38,-45.31 l -240.62,-240.62 c -22.07,-22.07 -51.96,-34.46 -83.17,-34.46 -31.17,0 -61.09,12.39 -83.12,34.46 l -240.67,240.62 c -29.18,29.22 -68.04,45.31 -109.33,45.31 -41.33,0 -80.2,-16.09 -109.38,-45.31 -60.31,-60.27 -60.31,-158.44 0,-218.75 l 240.63,-240.62 c 22.03,-22.03 34.45,-51.96 34.45,-83.13 0,-31.21 -12.42,-61.09 -34.45,-83.16 l -240.67,-240.63 c -60.27,-60.31 -60.27,-158.44 0,-218.75 29.22,-29.22 68.09,-45.31 109.38,-45.31 41.33,0 80.15,16.09 109.37,45.31 l 240.67,240.63 c 22.03,22.07 51.95,34.45 83.12,34.45 z" /></g></g></svg>